<svg version="1.2" xmlns="http://www.w3.org/2000/svg" viewBox="0 0 64 64" width="64" height="64">
	<title>New Project</title>
	<style>
		.s0 { fill: #01b178 } 
	</style>
	<path id="Shape 1" class="s0" d="m54.8 29.3c1.3 0.8 1.3 2.6 0 3.4l-11.2 6.5c-1.3 0.7-2.9-0.2-2.9-1.7v-13c0-1.5 1.6-2.4 2.9-1.7z"/>
	<path id="Shape 1 copy" class="s0" d="m10.2 32.7c-1.3-0.8-1.3-2.6 0-3.4l11.2-6.5c1.3-0.7 2.9 0.2 2.9 1.7v13c0 1.5-1.6 2.4-2.9 1.7z"/>
	<path id="Layer 1" class="s0" d="m32.5 37c-3 0-5.5-2.5-5.5-5.5 0-3 2.5-5.5 5.5-5.5 3 0 5.5 2.5 5.5 5.5 0 3-2.5 5.5-5.5 5.5z"/>
</svg>