<?xml version="1.0" encoding="UTF-8"?>
<svg id="Layer_1" data-name="Layer 1" xmlns="http://www.w3.org/2000/svg" viewBox="0 0 484 484">
  <defs>
    <style>
      .cls-1 {
        fill: #696c75;
      }
    </style>
  </defs>
  <path class="cls-1" d="M90.79,235.65H0c9.55-9.69,18.08-18.38,26.65-27.03,44.6-45,89.25-89.95,133.76-135.08,2.88-2.92,4.18-2.38,6.61,.39,26.74,30.51,51.26,63.42,76.88,95.13,8.04,9.95,16.42,19.55,24.4,29.57,2.41,3.03,3.57,2.27,5.71-.21,37.83-43.95,75.74-87.81,113.63-131.68,3.56-4.12,6.96-8.44,10.74-12.26,3.07-3.09,3.46-5.03,.2-8.65-11.81-13.08-23.26-26.59-34.81-39.98-1.04-1.21-2.58-2.07-2.89-4.38,41.12-.48,82.12-.96,123.12-1.45V143.88c-5.48-4.89-9.94-10.99-14.86-16.55-7.87-8.9-15.66-17.9-23.37-27-1.68-1.99-2.6-2.07-4.36-.06-14.1,16.08-28.27,32.1-42.52,48.01-30.75,34.35-61.55,68.64-92.37,102.89-3.62,4.02-7.61,7.58-11.81,10.81-18.05,13.85-31.78,13.47-49.34-1.37-12.92-10.92-23.39-24.69-33.97-38.37-15.18-19.62-30.51-39.08-45.6-58.79-2.62-3.42-3.7-.49-5.04,.87-22.5,22.94-44.95,45.95-67.41,68.94-.82,.84-1.71,1.58-2.57,2.37Z"/>
  <path class="cls-1" d="M.05,294.3c23.78,.08,47.56,.27,71.34,.13,3.99-.02,5.29,.8,5.28,5.86-.19,57.22-.12,114.45-.12,171.67,0,9.33-2.28,11.96-10.38,11.96-18.73,0-37.46-.13-56.19,.08-4.32,.05-7.57-1.36-9.93-5.48v-184.21Z"/>
  <path class="cls-1" d="M450.5,175.78v6.5c0,96.45,0,192.9,0,289.35,0,9.92-1.99,12.27-10.43,12.27-18.88,0-37.77,.01-56.65,0-6.7,0-9.23-2.79-9.23-10.32-.02-69.93,0-139.86-.03-209.79,0-2.25,.29-4.04,1.86-5.77,23.87-26.35,47.66-52.8,71.47-79.21,.67-.74,1.39-1.4,3.01-3.02Z"/>
  <path class="cls-1" d="M124.75,379.67c0-31.04,.06-62.08-.08-93.11-.02-3.45,.99-5.5,3.18-7.68,9.64-9.58,19.16-19.33,28.57-29.2,2.21-2.32,3.29-2.49,5.48,.27,12.29,15.51,23.68,32.02,37.71,45.61,1.43,1.38,1.56,2.94,1.56,4.8-.01,57.72,0,115.44-.03,173.16,0,7.52-2.65,10.36-9.31,10.38-19.34,.04-38.69,.06-58.03,.03-6.52,0-9.04-2.99-9.05-10.59-.02-31.22,0-62.44,0-93.66Z"/>
  <path class="cls-1" d="M325.94,310.43c0,2.79,0,4.35,0,5.91,0,51.39,0,102.79,0,154.18,0,11.23-1.89,13.42-11.54,13.42-18.41,0-36.82-.02-55.23-.04-7.32,0-9.64-2.63-9.65-10.91,0-46.67,0-93.35,0-140.02,0-1.44,0-2.88,0-4.71,27.56,6.88,52.71,.67,76.42-17.83Z"/>
</svg>