<?xml version="1.0" encoding="utf-8"?>
<!-- Generator: Adobe Illustrator 26.4.1, SVG Export Plug-In . SVG Version: 6.00 Build 0)  -->
<svg version="1.1" id="Layer_1" xmlns="http://www.w3.org/2000/svg" xmlns:xlink="http://www.w3.org/1999/xlink" x="0px" y="0px"
	 viewBox="0 0 512 512" style="enable-background:new 0 0 512 512;" xml:space="preserve">
<style type="text/css">
	.st0{fill:#696C75;}
</style>
<g>
	<path class="st0" d="M104.8,252.6c-29.8,0-59.7,0-90.8,0c9.5-9.7,18.1-18.4,26.7-27c44.6-45,89.3-90,133.8-135.1
		c2.9-2.9,4.2-2.4,6.6,0.4c26.7,30.5,51.3,63.4,76.9,95.1c8,10,16.4,19.5,24.4,29.6c2.4,3,3.6,2.3,5.7-0.2
		c37.8-43.9,75.7-87.8,113.6-131.7c3.6-4.1,7-8.4,10.7-12.3c3.1-3.1,3.5-5,0.2-8.6c-11.8-13.1-23.3-26.6-34.8-40
		c-1-1.2-2.6-2.1-2.9-4.4C416,18,457,17.5,498,17c0,48,0,95.9,0,143.9c-5.5-4.9-9.9-11-14.9-16.5c-7.9-8.9-15.7-17.9-23.4-27
		c-1.7-2-2.6-2.1-4.4-0.1c-14.1,16.1-28.3,32.1-42.5,48c-30.7,34.3-61.5,68.6-92.4,102.9c-3.6,4-7.6,7.6-11.8,10.8
		c-18.1,13.8-31.8,13.5-49.3-1.4c-12.9-10.9-23.4-24.7-34-38.4c-15.2-19.6-30.5-39.1-45.6-58.8c-2.6-3.4-3.7-0.5-5,0.9
		c-22.5,22.9-44.9,46-67.4,68.9C106.5,251.1,105.6,251.9,104.8,252.6z"/>
	<path class="st0" d="M14,311.3c23.8,0.1,47.6,0.3,71.3,0.1c4,0,5.3,0.8,5.3,5.9c-0.2,57.2-0.1,114.4-0.1,171.7
		c0,9.3-2.3,12-10.4,12c-18.7,0-37.5-0.1-56.2,0.1c-4.3,0-7.6-1.4-9.9-5.5C14,434.1,14,372.7,14,311.3z"/>
	<path class="st0" d="M464.5,192.8c0,3,0,4.7,0,6.5c0,96.4,0,192.9,0,289.3c0,9.9-2,12.3-10.4,12.3c-18.9,0-37.8,0-56.7,0
		c-6.7,0-9.2-2.8-9.2-10.3c0-69.9,0-139.9,0-209.8c0-2.3,0.3-4,1.9-5.8c23.9-26.4,47.7-52.8,71.5-79.2
		C462.2,195.1,462.9,194.4,464.5,192.8z"/>
	<path class="st0" d="M138.8,396.7c0-31,0.1-62.1-0.1-93.1c0-3.5,1-5.5,3.2-7.7c9.6-9.6,19.2-19.3,28.6-29.2
		c2.2-2.3,3.3-2.5,5.5,0.3c12.3,15.5,23.7,32,37.7,45.6c1.4,1.4,1.6,2.9,1.6,4.8c0,57.7,0,115.4,0,173.2c0,7.5-2.6,10.4-9.3,10.4
		c-19.3,0-38.7,0.1-58,0c-6.5,0-9-3-9-10.6C138.7,459.1,138.8,427.9,138.8,396.7z"/>
	<path class="st0" d="M339.9,327.4c0,2.8,0,4.3,0,5.9c0,51.4,0,102.8,0,154.2c0,11.2-1.9,13.4-11.5,13.4c-18.4,0-36.8,0-55.2,0
		c-7.3,0-9.6-2.6-9.6-10.9c0-46.7,0-93.3,0-140c0-1.4,0-2.9,0-4.7C291.1,352.1,316.2,345.9,339.9,327.4z"/>
</g>
</svg>
