<?xml version="1.0" encoding="UTF-8"?>
<svg id="Layer_1" data-name="Layer 1" xmlns="http://www.w3.org/2000/svg" viewBox="0 0 511.81 511.81">
  <defs>
    <style>
      .cls-1 {
        fill: #696c75;
      }
    </style>
  </defs>
  <path class="cls-1" d="M502.84,240.04c-16.46-12.47-32.61-25.34-49.11-37.75-3.16-2.38-3.66-4.38-1.77-7.87,5.39-9.95,10.67-19.96,15.93-29.99,3.94-7.52,8.39-14.8,11.7-22.61,4.29-10.1-1.08-19.81-11.74-22.1-5.88-1.26-11.88-1.42-17.83-2.06-15.54-1.68-31.11-3.17-46.65-4.87-2.83-.31-4.01-1.46-4.35-4.3-1.11-9.25-1.78-18.54-2.87-27.79-1.47-12.38-1.91-24.9-4.22-37.17-1.79-9.54-10.7-14.65-20.05-12.05-3.05,.85-6,1.99-8.98,3.07-17.36,6.33-34.75,12.59-52.09,18.99-3.87,1.43-5.89,.53-8.27-2.69-10.89-14.73-21.74-29.49-32.66-44.2-2.61-3.52-5.61-5.99-9.98-6.65h-8c-3.91,.7-6.8,2.73-9.45,5.79-10.78,12.47-21.65,24.86-32.18,37.54-3.11,3.75-6.14,4.47-10.81,3.25-19.82-5.17-39.6-10.54-59.56-15.2-10.25-2.39-18.19,2.83-20.33,13.11-1.19,5.72-1.32,11.57-1.95,17.35-1.67,15.38-3.19,30.78-4.8,46.17-.35,3.32-1.75,4.49-4.95,4.84-5.79,.63-11.59,1.12-17.38,1.77-14.88,1.67-29.77,3.26-44.67,4.75-10.83,1.08-17.43,12.37-13.66,22.39,7.4,19.63,14.32,39.45,21.45,59.19,1.3,3.6,.73,5.68-2.38,7.99-14.85,11.01-29.76,21.95-44.6,32.98-3.51,2.61-5.99,5.62-6.65,9.99v8c.66,4.36,3.13,7.36,6.65,9.97,14.56,10.83,29.2,21.54,43.76,32.37,3.67,2.73,4.55,5.08,2.92,9.57-7.1,19.55-14.33,39.06-21.11,58.73-.99,2.86-1.62,5.68-.99,8.79,1.71,8.5,7.7,11.94,15.41,13.52,18.75,3.84,37.5,7.7,56.23,11.65,10.51,2.22,9.2,.37,10.7,12.04,2.12,16.49,3.85,33.03,5.85,49.54,1.37,11.26,12.23,17.26,22.37,13.48,19.34-7.2,38.82-14.03,58.21-21.08,4.49-1.63,6.84-.76,9.57,2.92,10.82,14.56,21.54,29.21,32.37,43.76,2.61,3.51,5.61,5.99,9.97,6.65h8c4.13-.68,7.18-2.85,9.72-6.2,4.32-5.71,8.66-11.39,13.06-17.04,9.1-11.69,18.17-23.39,27.17-35.16,1.56-2.04,2.97-4.14,6.08-2.29,6.01,3.57,12.43,6.37,18.59,9.68,11.43,6.14,22.83,12.38,34.53,17.99,10.89,5.23,21.04-.15,23.13-11.98,.43-2.46,.77-4.92,1.03-7.41,1.94-18.52,3.75-37.04,5.75-55.55,.35-3.27,1.62-4.54,4.89-4.89,12.23-1.3,24.48-2.42,36.7-3.83,9.24-1.06,18.6-1.23,27.73-3.15,9.51-2,14.66-10.72,12.07-20.05-.8-2.89-1.86-5.7-2.89-8.51-6.31-17.18-12.37-34.46-18.88-51.57-1.8-4.73-.53-7.12,3.23-9.91,14.43-10.72,28.94-21.34,43.36-32.06,3.51-2.61,5.98-5.61,6.64-9.97v-8c-.6-5.77-4.87-8.76-8.97-11.87Zm-33.12,18.34c-13.44,9.78-26.73,19.76-40.03,29.74-6.58,4.94-8.11,10.6-5.26,18.43,6.51,17.91,12.86,35.89,19.63,53.71,1.45,3.81,.1,4.17-2.93,4.46-17.88,1.71-35.76,3.51-53.64,5.25-11.97,1.17-16.35,5.55-17.53,17.51-1.7,17.21-3.54,34.41-5.08,51.63-.35,3.92-2.07,2.36-3.75,1.48-13.8-7.24-27.63-14.42-41.35-21.81-11.95-6.44-17.31-5.44-25.53,5.24-11.87,15.41-23.74,30.82-35.63,46.22-.69,.9-1.52,1.7-2.61,2.89-8.34-11.22-16.55-22.26-24.76-33.3-2.58-3.47-5.13-6.96-7.77-10.38-4.65-6.05-10.51-7.86-17.62-5.31-17.62,6.34-35.22,12.75-52.81,19.15-5.63,2.05-5.57,2.08-6.24-3.97-1.67-14.87-3.32-29.75-5.1-44.61-1.26-10.54-4.58-14.08-14.98-16.25-19.01-3.96-38.03-7.9-57.06-11.77-2.71-.55-3.78-1.07-2.56-4.35,6.84-18.32,13.34-36.77,20-55.15,3.15-8.69,1.72-14.04-5.66-19.57-12.77-9.57-25.53-19.15-38.46-28.51-3.33-2.41-3.99-3.6-.18-6.33,12.97-9.28,25.68-18.94,38.5-28.44,7.37-5.47,8.99-10.92,5.87-19.53-6.33-17.45-12.57-34.93-19-52.34-1.31-3.55-1.26-5.06,3.22-5.44,17.73-1.52,35.42-3.44,53.13-5.23,11.87-1.2,16.06-5.36,17.25-17.21,1.81-18.04,3.69-36.07,5.25-54.13,.41-4.73,1.57-5.95,6.49-4.59,17.42,4.82,35,9.07,52.49,13.66,7.17,1.89,12.94,.25,17.79-5.49,9.54-11.32,19.34-22.42,28.85-33.76,1.95-2.32,2.74-2.33,4.52,.11,9.99,13.7,20.15,27.28,30.24,40.9,5.55,7.5,10.89,9.08,19.49,5.94,17.76-6.48,35.59-12.77,53.27-19.47,3.65-1.38,4.23-.35,4.53,2.83,1.69,17.72,3.57,35.41,5.21,53.14,1.18,12.8,5.5,17,18.46,18.18,17.06,1.55,34.09,3.45,51.14,5.06,4.45,.42,1.68,2.74,1.05,3.94-7.21,13.82-14.49,27.6-21.91,41.31-6.31,11.67-5.29,17.11,5.11,25.13,15.4,11.88,30.74,23.84,46.26,35.57,3.25,2.46,2.51,3.4-.32,5.46Z"/>
  <path class="cls-1" d="M209.71,336.95c-2.83,0-5.66,.03-8.5,0-6.17-.07-8.01-3.25-4.93-8.64,8.56-14.98,17.14-29.95,25.74-44.91,18.86-32.79,38-65.42,56.44-98.45,4.95-8.87,11-13.17,21.08-12.08,3.95,.43,7.99,.01,11.99,.08,5.74,.1,7.7,3.48,4.84,8.47-9.87,17.29-19.77,34.55-29.69,51.81-17.62,30.64-35.51,61.14-52.76,91.99-4.83,8.64-10.77,13.15-20.72,11.76-1.14-.16-2.33-.02-3.5-.02Z"/>
  <path class="cls-1" d="M233.91,195.93c-3.51-12.76-11.88-20.86-24.76-23.98-12.13-2.94-24.32-2.98-36.52-.08-13.4,3.19-21.9,11.55-25.34,24.66-3.48,13.24-3.48,26.63,.59,39.83,3.17,10.28,9.63,17.63,19.85,21.38,7.42,2.72,15.14,3.64,23.01,3.17,2.99,0,5.99,.15,8.97-.03,18.2-1.09,30.21-10.35,34.52-27.03,3.26-12.61,3.13-25.36-.33-37.93Zm-33.03,34.41c0,3.69-1.69,5.3-5.42,5.56-14.97,1.06-14.97,1.14-14.97-13.47,0-1.81,0-3.61,0-5.42,.08,0,.16,0,.25,0,0-5.59,0-11.18,0-16.78,0-2.99,1.21-4.51,4.49-4.48,4.3,.03,8.61-.31,12.9-.63,2.21-.16,2.85,.69,2.83,2.83-.1,10.79-.1,21.59-.08,32.38Z"/>
  <path class="cls-1" d="M364.7,277.92c-3.61-14.26-12.94-22.77-27.25-25.82-5.37-1.15-10.83-1.69-16.34-1.18-2.99,0-5.99-.13-8.97,.02-18.03,.94-30.22,10.32-34.55,26.97-3.32,12.78-3.23,25.7,.41,38.38,3.28,11.42,10.53,19.34,22.23,22.81,12.89,3.82,25.86,3.87,38.87,.88,13.37-3.07,21.88-11.48,25.41-24.6,3.34-12.4,3.35-24.99,.2-37.45Zm-33.59,11c.1,1.99,.02,3.99,.01,5.98,0,5.32-.02,10.64,0,15.95,.01,3.26-.9,5.16-4.82,5.26-4.94,.12-11.05,2.45-14.47-.22-3.03-2.36-.79-8.72-.91-13.3-.17-6.48-.08-12.96-.03-19.44,.04-6.06,.96-7.08,6.8-7.18,4.29-.07,9.88-1.47,12.52,.65,2.76,2.22,.67,8.05,.89,12.29Z"/>
</svg>