<?xml version="1.0" encoding="utf-8"?>
<!-- Generator: Adobe Illustrator 26.4.1, SVG Export Plug-In . SVG Version: 6.00 Build 0)  -->
<svg version="1.1" id="Layer_1" xmlns="http://www.w3.org/2000/svg" xmlns:xlink="http://www.w3.org/1999/xlink" x="0px" y="0px"
	 viewBox="0 0 512 512" style="enable-background:new 0 0 512 512;" xml:space="preserve">
<style type="text/css">
	.st0{fill:#696C75;}
</style>
<path class="st0" d="M502.9,240.1c-16.5-12.5-32.6-25.3-49.1-37.8c-3.2-2.4-3.7-4.4-1.8-7.9c5.4-9.9,10.7-20,15.9-30
	c3.9-7.5,8.4-14.8,11.7-22.6c4.3-10.1-1.1-19.8-11.7-22.1c-5.9-1.3-11.9-1.4-17.8-2.1c-15.5-1.7-31.1-3.2-46.6-4.9
	c-2.8-0.3-4-1.5-4.4-4.3c-1.1-9.2-1.8-18.5-2.9-27.8c-1.5-12.4-1.9-24.9-4.2-37.2c-1.8-9.5-10.7-14.7-20-12c-3,0.9-6,2-9,3.1
	c-17.4,6.3-34.8,12.6-52.1,19c-3.9,1.4-5.9,0.5-8.3-2.7C291.7,36.2,280.9,21.5,270,6.7c-2.6-3.5-5.6-6-10-6.6c-2.7,0-5.3,0-8,0
	c-3.9,0.7-6.8,2.7-9.4,5.8c-10.8,12.5-21.7,24.9-32.2,37.5c-3.1,3.7-6.1,4.5-10.8,3.3C179.7,41.5,160,36.1,140,31.5
	c-10.2-2.4-18.2,2.8-20.3,13.1c-1.2,5.7-1.3,11.6-1.9,17.4c-1.7,15.4-3.2,30.8-4.8,46.2c-0.3,3.3-1.8,4.5-4.9,4.8
	c-5.8,0.6-11.6,1.1-17.4,1.8c-14.9,1.7-29.8,3.3-44.7,4.7c-10.8,1.1-17.4,12.4-13.7,22.4c7.4,19.6,14.3,39.4,21.4,59.2
	c1.3,3.6,0.7,5.7-2.4,8C36.5,220,21.6,231,6.7,242c-3.5,2.6-6,5.6-6.6,10c0,2.7,0,5.3,0,8c0.7,4.4,3.1,7.4,6.6,10
	c14.6,10.8,29.2,21.5,43.8,32.4c3.7,2.7,4.5,5.1,2.9,9.6c-7.1,19.6-14.3,39.1-21.1,58.7c-1,2.9-1.6,5.7-1,8.8
	c1.7,8.5,7.7,11.9,15.4,13.5c18.8,3.8,37.5,7.7,56.2,11.7c10.5,2.2,9.2,0.4,10.7,12c2.1,16.5,3.8,33,5.8,49.5
	c1.4,11.3,12.2,17.3,22.4,13.5c19.3-7.2,38.8-14,58.2-21.1c4.5-1.6,6.8-0.8,9.6,2.9c10.8,14.6,21.5,29.2,32.4,43.8
	c2.6,3.5,5.6,6,10,6.6c2.7,0,5.3,0,8,0c4.1-0.7,7.2-2.8,9.7-6.2c4.3-5.7,8.7-11.4,13.1-17c9.1-11.7,18.2-23.4,27.2-35.2
	c1.6-2,3-4.1,6.1-2.3c6,3.6,12.4,6.4,18.6,9.7c11.4,6.1,22.8,12.4,34.5,18c10.9,5.2,21-0.2,23.1-12c0.4-2.5,0.8-4.9,1-7.4
	c1.9-18.5,3.8-37,5.7-55.6c0.4-3.3,1.6-4.5,4.9-4.9c12.2-1.3,24.5-2.4,36.7-3.8c9.2-1.1,18.6-1.2,27.7-3.2
	c9.5-2,14.7-10.7,12.1-20.1c-0.8-2.9-1.9-5.7-2.9-8.5c-6.3-17.2-12.4-34.5-18.9-51.6c-1.8-4.7-0.5-7.1,3.2-9.9
	c14.4-10.7,28.9-21.3,43.4-32.1c3.5-2.6,6-5.6,6.6-10c0-2.7,0-5.3,0-8C511.3,246.2,507,243.2,502.9,240.1z M469.8,258.5
	c-13.4,9.8-26.7,19.8-40,29.7c-6.6,4.9-8.1,10.6-5.3,18.4c6.5,17.9,12.9,35.9,19.6,53.7c1.4,3.8,0.1,4.2-2.9,4.5
	c-17.9,1.7-35.8,3.5-53.6,5.3c-12,1.2-16.4,5.5-17.5,17.5c-1.7,17.2-3.5,34.4-5.1,51.6c-0.3,3.9-2.1,2.4-3.7,1.5
	c-13.8-7.2-27.6-14.4-41.3-21.8c-11.9-6.4-17.3-5.4-25.5,5.2c-11.9,15.4-23.7,30.8-35.6,46.2c-0.7,0.9-1.5,1.7-2.6,2.9
	c-8.3-11.2-16.5-22.3-24.8-33.3c-2.6-3.5-5.1-7-7.8-10.4c-4.6-6.1-10.5-7.9-17.6-5.3c-17.6,6.3-35.2,12.7-52.8,19.2
	c-5.6,2-5.6,2.1-6.2-4c-1.7-14.9-3.3-29.8-5.1-44.6c-1.3-10.5-4.6-14.1-15-16.3c-19-4-38-7.9-57.1-11.8c-2.7-0.6-3.8-1.1-2.6-4.3
	c6.8-18.3,13.3-36.8,20-55.2c3.1-8.7,1.7-14-5.7-19.6c-12.8-9.6-25.5-19.2-38.5-28.5c-3.3-2.4-4-3.6-0.2-6.3
	c13-9.3,25.7-18.9,38.5-28.4c7.4-5.5,9-10.9,5.9-19.5c-6.3-17.4-12.6-34.9-19-52.3c-1.3-3.6-1.3-5.1,3.2-5.4
	c17.7-1.5,35.4-3.4,53.1-5.2c11.9-1.2,16.1-5.4,17.3-17.2c1.8-18,3.7-36.1,5.3-54.1c0.4-4.7,1.6-5.9,6.5-4.6
	c17.4,4.8,35,9.1,52.5,13.7c7.2,1.9,12.9,0.3,17.8-5.5c9.5-11.3,19.3-22.4,28.9-33.8c1.9-2.3,2.7-2.3,4.5,0.1
	c10,13.7,20.1,27.3,30.2,40.9c5.6,7.5,10.9,9.1,19.5,5.9c17.8-6.5,35.6-12.8,53.3-19.5c3.6-1.4,4.2-0.4,4.5,2.8
	c1.7,17.7,3.6,35.4,5.2,53.1c1.2,12.8,5.5,17,18.5,18.2c17.1,1.6,34.1,3.5,51.1,5.1c4.5,0.4,1.7,2.7,1.1,3.9
	c-7.2,13.8-14.5,27.6-21.9,41.3c-6.3,11.7-5.3,17.1,5.1,25.1c15.4,11.9,30.7,23.8,46.3,35.6C473.4,255.5,472.6,256.4,469.8,258.5z"
	/>
<path class="st0" d="M209.8,337c-2.8,0-5.7,0-8.5,0c-6.2-0.1-8-3.3-4.9-8.6c8.6-15,17.1-30,25.7-44.9c18.9-32.8,38-65.4,56.4-98.5
	c4.9-8.9,11-13.2,21.1-12.1c4,0.4,8,0,12,0.1c5.7,0.1,7.7,3.5,4.8,8.5c-9.9,17.3-19.8,34.6-29.7,51.8c-17.6,30.6-35.5,61.1-52.8,92
	c-4.8,8.6-10.8,13.2-20.7,11.8C212.2,336.9,211,337,209.8,337z"/>
<path class="st0" d="M234,196c-3.5-12.8-11.9-20.9-24.8-24c-12.1-2.9-24.3-3-36.5-0.1c-13.4,3.2-21.9,11.6-25.3,24.7
	c-3.5,13.2-3.5,26.6,0.6,39.8c3.2,10.3,9.6,17.6,19.9,21.4c7.4,2.7,15.1,3.6,23,3.2c3,0,6,0.2,9,0c18.2-1.1,30.2-10.4,34.5-27
	C237.6,221.3,237.5,208.6,234,196z M201,230.4c0,3.7-1.7,5.3-5.4,5.6c-15,1.1-15,1.1-15-13.5c0-1.8,0-3.6,0-5.4c0.1,0,0.2,0,0.2,0
	c0-5.6,0-11.2,0-16.8c0-3,1.2-4.5,4.5-4.5c4.3,0,8.6-0.3,12.9-0.6c2.2-0.2,2.9,0.7,2.8,2.8C201,208.8,201,219.6,201,230.4z"/>
<path class="st0" d="M364.8,278c-3.6-14.3-12.9-22.8-27.3-25.8c-5.4-1.1-10.8-1.7-16.3-1.2c-3,0-6-0.1-9,0
	c-18,0.9-30.2,10.3-34.5,27c-3.3,12.8-3.2,25.7,0.4,38.4c3.3,11.4,10.5,19.3,22.2,22.8c12.9,3.8,25.9,3.9,38.9,0.9
	c13.4-3.1,21.9-11.5,25.4-24.6C367.9,303.1,367.9,290.5,364.8,278z M331.2,289c0.1,2,0,4,0,6c0,5.3,0,10.6,0,16
	c0,3.3-0.9,5.2-4.8,5.3c-4.9,0.1-11.1,2.4-14.5-0.2c-3-2.4-0.8-8.7-0.9-13.3c-0.2-6.5-0.1-13,0-19.4c0-6.1,1-7.1,6.8-7.2
	c4.3-0.1,9.9-1.5,12.5,0.7C333.1,278.9,331,284.8,331.2,289z"/>
</svg>
